<?xml version="1.0" encoding="utf-8"?>
<!-- Generator: Adobe Illustrator 16.0.0, SVG Export Plug-In . SVG Version: 6.00 Build 0)  -->
<!DOCTYPE svg PUBLIC "-//W3C//DTD SVG 1.1//EN" "http://www.w3.org/Graphics/SVG/1.1/DTD/svg11.dtd">
<svg version="1.1" id="Layer_1" xmlns="http://www.w3.org/2000/svg" xmlns:xlink="http://www.w3.org/1999/xlink" x="0px" y="0px"
	 width="57px" height="75px" viewBox="0 0 57 75" enable-background="new 0 0 57 75" xml:space="preserve">
<g>
	<path fill="#FFFFFF" d="M8.714,74.5c-0.767,0-1.402-0.067-1.91-0.205c-0.507-0.135-0.912-0.361-1.214-0.676
		c-0.303-0.314-0.52-0.739-0.649-1.271c-0.13-0.531-0.195-1.192-0.195-1.983v-4.488c0-0.791,0.064-1.453,0.195-1.984
		c0.13-0.531,0.346-0.957,0.649-1.279c0.302-0.32,0.707-0.547,1.214-0.678c0.507-0.129,1.143-0.193,1.91-0.193h7.158
		c0.47,0,0.881,0.064,1.233,0.193c0.352,0.131,0.652,0.291,0.899,0.483c0.247,0.192,0.445,0.396,0.593,0.612
		c0.148,0.216,0.26,0.41,0.334,0.584l-1.594,1.631c-0.112-0.247-0.292-0.473-0.539-0.676c-0.248-0.205-0.612-0.307-1.093-0.307
		H8.732c-0.556,0-0.945,0.117-1.167,0.352c-0.223,0.236-0.335,0.656-0.335,1.262v4.506c0,0.272,0.019,0.508,0.056,0.705
		s0.108,0.365,0.213,0.5c0.104,0.137,0.256,0.238,0.454,0.307c0.197,0.068,0.457,0.102,0.779,0.102h7.065
		c0.494,0,0.859-0.102,1.095-0.307c0.234-0.203,0.408-0.428,0.519-0.676l1.595,1.613c-0.074,0.173-0.186,0.367-0.334,0.584
		s-0.346,0.42-0.593,0.612c-0.248,0.191-0.547,0.353-0.899,0.481c-0.353,0.131-0.765,0.195-1.234,0.195H8.714z"/>
	<path fill="#FFFFFF" d="M24.847,74.5c-0.767,0-1.403-0.067-1.909-0.205c-0.507-0.135-0.912-0.361-1.215-0.676
		c-0.303-0.314-0.52-0.739-0.649-1.271s-0.195-1.192-0.195-1.983v-4.488c0-0.791,0.065-1.453,0.195-1.984s0.346-0.957,0.649-1.279
		c0.303-0.32,0.708-0.547,1.215-0.678c0.506-0.129,1.143-0.193,1.909-0.193h7.158c0.469,0,0.881,0.064,1.232,0.193
		c0.353,0.131,0.652,0.291,0.9,0.483c0.246,0.192,0.445,0.396,0.593,0.612c0.148,0.216,0.261,0.41,0.334,0.584l-1.595,1.631
		c-0.111-0.247-0.291-0.473-0.538-0.676c-0.247-0.205-0.612-0.307-1.095-0.307h-6.972c-0.556,0-0.945,0.117-1.168,0.352
		c-0.223,0.236-0.334,0.656-0.334,1.262v4.506c0,0.272,0.018,0.508,0.056,0.705c0.037,0.197,0.108,0.365,0.213,0.5
		c0.104,0.137,0.256,0.238,0.454,0.307s0.457,0.102,0.779,0.102h7.065c0.494,0,0.859-0.102,1.094-0.307
		c0.234-0.203,0.408-0.428,0.52-0.676l1.595,1.613c-0.074,0.173-0.186,0.367-0.334,0.584c-0.147,0.217-0.347,0.42-0.593,0.612
		c-0.248,0.191-0.548,0.353-0.9,0.481c-0.352,0.131-0.764,0.195-1.232,0.195H24.847z"/>
	<rect x="37.104" y="61.742" fill="#FFFFFF" width="2.504" height="12.758"/>
	<path fill="#FFFFFF" d="M41.165,74.5v-2.504h7.27c0.519,0,0.877-0.113,1.074-0.342c0.199-0.229,0.297-0.629,0.297-1.197v-8.715
		h2.485v8.715c0,0.768-0.062,1.406-0.185,1.92c-0.124,0.512-0.334,0.928-0.631,1.242s-0.693,0.541-1.188,0.676
		c-0.494,0.138-1.112,0.205-1.854,0.205H41.165z"/>
	<path fill="#FFFFFF" d="M34.173,30.199c0,0-5.474,6.452-7.465,6.898c-1.992,0.446-6.517-4.778-6.517-4.778s-4.473-4.474-3.972-7.44
		c-1.793,2.046-3.496,4.246-3.759,5.486c-0.587,2.759,5.573,9.114,5.573,9.114s6.354,6.161,9.113,5.574
		c2.761-0.588,10.06-8.502,10.06-8.502s11.737-12.576,12.642-16.42c1.531-4.236-2.386-8.409-2.386-8.409
		C42.087,22.541,34.173,30.199,34.173,30.199"/>
	<path fill="#FFFFFF" d="M20.168,0.515C16.422,0.926,5.06,13.221,5.06,13.221c-4.439,4.497-4.917,7.873-4.409,11.344
		c0,0,6.827-8.35,13.284-14.329c4.849-4.49,6.476-5.637,7.597-5.552c0.372,0.028,0.688,0.192,1.047,0.414
		c0.103,0.064,0.2,0.098,0.291,0.11c-0.016-0.621-0.066-1.26-0.171-1.862C22.412,1.699,21.715,0.344,20.168,0.515"/>
	<path fill="#FFFFFF" d="M27.302,47.785c-3.306,0.703-10.917-6.677-10.917-6.677s-7.379-7.611-6.676-10.917
		c0.704-3.306,9.932-12.301,9.932-12.301S30.966,6.562,38.261,4.93c-3.016-2.225-6.201-4.088-8.141-3.814
		c-1.791,0.254-4.408,1.747-7.251,4.092l-0.188,3.42c0,0-0.001,2.222-4.429,2.461C16,11.211,10.666,17.033,5.637,22.761
		c-2.2,2.709-4.036,5.411-4.277,7.115C0.717,34.419,11.8,45.803,11.8,45.803s11.382,11.083,15.925,10.439
		s16.156-12.604,16.156-12.604s11.961-11.614,12.604-16.157c0.24-1.696-1.154-4.345-2.995-6.998
		c-2.462,5.402-13.887,17.37-13.887,17.37S30.606,47.082,27.302,47.785"/>
</g>
</svg>
